<svg xmlns="http://www.w3.org/2000/svg" viewBox="0 0 750 471">
  <rect width="750" height="471" rx="40" fill="white" stroke="#DDDDDD" stroke-width="8"/>
  <!-- barras do código de barras -->
  <g fill="#222222">
    <rect x="80"  y="120" width="12" height="180"/>
    <rect x="100" y="120" width="6"  height="180"/>
    <rect x="114" y="120" width="18" height="180"/>
    <rect x="140" y="120" width="8"  height="180"/>
    <rect x="156" y="120" width="14" height="180"/>
    <rect x="178" y="120" width="6"  height="180"/>
    <rect x="192" y="120" width="20" height="180"/>
    <rect x="220" y="120" width="10" height="180"/>
    <rect x="238" y="120" width="6"  height="180"/>
    <rect x="252" y="120" width="16" height="180"/>
    <rect x="276" y="120" width="8"  height="180"/>
    <rect x="292" y="120" width="12" height="180"/>
    <rect x="312" y="120" width="6"  height="180"/>
    <rect x="326" y="120" width="22" height="180"/>
    <rect x="356" y="120" width="8"  height="180"/>
    <rect x="372" y="120" width="14" height="180"/>
    <rect x="394" y="120" width="6"  height="180"/>
    <rect x="408" y="120" width="18" height="180"/>
    <rect x="434" y="120" width="10" height="180"/>
    <rect x="452" y="120" width="6"  height="180"/>
    <rect x="466" y="120" width="20" height="180"/>
    <rect x="494" y="120" width="8"  height="180"/>
    <rect x="510" y="120" width="14" height="180"/>
    <rect x="532" y="120" width="6"  height="180"/>
    <rect x="546" y="120" width="16" height="180"/>
    <rect x="570" y="120" width="10" height="180"/>
    <rect x="588" y="120" width="8"  height="180"/>
    <rect x="604" y="120" width="18" height="180"/>
    <rect x="630" y="120" width="6"  height="180"/>
    <rect x="644" y="120" width="12" height="180"/>
    <rect x="664" y="120" width="8"  height="180"/>
  </g>
  <text x="375" y="365" font-family="Arial, sans-serif" font-size="72" font-weight="bold" fill="#222222" text-anchor="middle" letter-spacing="8">BOLETO</text>
</svg>
